<svg xmlns="http://www.w3.org/2000/svg" viewBox="0 0 512 512">
  <path fill="#2a2a7b" d="M139.07 107.1C97.44 136.52 67 179.18 53.97 225.12 46.97 249.68 45 267.45 45 267.45s2.31-8.43 6.78-23.22c10.4-40.4 31.45-83.53 61.87-121.57 33.59-41.44 76.23-72.12 121.39-88.23 17.71-6.23 36.39-10.12 55.09-11.68-48.39 20.92-92.36 59.34-123.05 110.78zm276.86 0c-30.27-51.36-74.27-89.74-122.59-109.89 18.84 1.64 37.5 5.5 55.11 11.7 45.16 16.11 87.8 46.79 121.39 88.22 30.43 38.05 51.47 81.18 61.88 121.58 4.47 14.79 6.79 23.22 6.79 23.22s-1.97-17.77-8-42.33c-13.03-45.94-43.46-88.6-85.1-118.02zm-191.45 292.8c-41.63-29.43-71.07-70.68-84.09-116.63-6.78-25.28-8.33-41.24-8.33-41.24s1.15 16.6 5.07 45.76c8.9 55.4 36.79 106.91 82.35 145.68 38.57 31.43 89.26 47.81 139.13 45.71-14.3-6.5-28.57-13.67-42.82-21.5-50.4-28.94-92.97-71.11-123.31-119.78zm345.3-9.26c-30.34 48.68-72.91 90.85-123.32 119.78-14.26 7.83-28.52 15-42.81 21.5 49.87 2.1 100.56-14.28 139.12-45.71 45.55-38.77 73.44-90.29 82.34-145.69 3.93-29.16 5.07-45.77 5.07-45.77s-1.55 15.96-8.33 41.24c-13.01 45.95-42.46 87.2-84.1 116.63z"/>
</svg>
